<?xml version="1.0" encoding="UTF-8"?>
<svg role="img" alt="" width="1053px" height="310px" viewBox="0 0 1053 310" version="1.1" xmlns="http://www.w3.org/2000/svg" xmlns:xlink="http://www.w3.org/1999/xlink">
    <g id="campus-footer" stroke="none" stroke-width="1" fill="none" fill-rule="evenodd">
        <g id="Group-3" transform="translate(909.000000, 30.000000)" fill-rule="nonzero">
            <g id="Group-2">
                <g id="Group">
                    <path d="M13.2941339,48.995122 L74.7058661,48.995122 L74.7058661,190.995122 L13.2941339,190.995122 L13.2941339,48.995122 Z M13.2941339,193.995122 L74.2941339,193.995122 L74.2941339,210.995122 L13.2941339,210.995122 L13.2941339,193.995122 Z M13.2941339,213.995122 L74.2941339,213.995122 L74.2941339,231.995122 L13.2941339,231.995122 L13.2941339,213.995122 Z M13.2941339,235.995122 L74.2941339,235.995122 L74.2941339,274.995122 C74.2941339,277.204261 72.5032729,278.995122 70.2941339,278.995122 L13.2941339,278.995122 L13.2941339,235.995122 Z M17,53 L17,126 L25,126 L25,53 L17,53 Z M63,53 L63,126 L71,126 L71,53 L63,53 Z M38.0454106,53 L38.0454106,126 L50,126 L50,53 L38.0454106,53 Z" id="Combined-Shape" fill="#E0E6ED"></path>
                    <path d="M9.36956522,22.3202091 L9.36956522,48.528223 C9.36956522,48.9148223 9.68296589,49.228223 10.0695652,49.228223 L77.9304348,49.228223 C78.3170341,49.228223 78.6304348,48.9148223 78.6304348,48.528223 L78.6304348,22.3202091 L9.36956522,22.3202091 Z" id="Rectangle" stroke="#E0E6ED" stroke-width="4.2"></path>
                    <path d="M14.6545204,55.4111498 L1.67329193,55.4111498 C0.900093276,55.4111498 0.273291925,56.0379512 0.273291925,56.8111498 L0.273291925,114.50966 C0.273291925,114.8094 0.369492568,115.101227 0.547740891,115.342208 L14.6545204,134.413679 L14.6545204,55.4111498 Z" id="Path" fill="#E0E6ED"></path>
                    <path d="M87.5323671,55.4111498 L75.9511387,55.4111498 C74.4047414,55.4111498 73.1511387,56.6647525 73.1511387,58.2111498 L73.1511387,114.048151 C73.1511387,114.647631 73.34354,115.231284 73.7000366,115.713245 L87.5323671,134.413679 L87.5323671,55.4111498 Z" id="Path" fill="#E0E6ED" transform="translate(80.341753, 94.912414) scale(-1, 1) translate(-80.341753, -94.912414) "></path>
                    <path d="M10.4658355,31.5526132 L78.4843286,31.5526132" id="Line-10" stroke="#E0E6ED" stroke-width="4.2" stroke-linecap="square"></path>
                    <path d="M9.5010342,39.94 L78.4843286,39.94" id="Line-10-Copy" stroke="#E0E6ED" stroke-width="4.2" stroke-linecap="square"></path>
                    <path d="M27.4433598,0 L61.1997225,-1.9095836e-14 C61.8529229,-1.74753515e-14 62.4855685,0.228371954 62.9881619,0.645589588 L82.7301742,17.0340149 C83.9200222,18.0217428 84.083873,19.7870168 83.0961451,20.9768648 C82.5641873,21.6176779 81.7745736,21.9884253 80.9417347,21.9884253 L7.20779729,21.9884253 C5.66139999,21.9884253 4.40779729,20.7348226 4.40779729,19.1884253 C4.40779729,18.3437165 4.78914049,17.5441528 5.44557097,17.0125213 L25.6811335,0.624095958 C26.1796961,0.220318893 26.8017988,1.70158344e-15 27.4433598,4.4408921e-16 Z" id="Rectangle" fill="#E0E6ED"></path>
                </g>
                <path d="M30.7848171,21.8728223 L30.7848171,48.995122" id="Line-11" stroke="#E0E6ED" stroke-width="4.2" stroke-linecap="square"></path>
                <path d="M57.020842,21.8728223 L57.020842,48.995122" id="Line-11-Copy" stroke="#E0E6ED" stroke-width="4.2" stroke-linecap="square"></path>
            </g>
        </g>
        <g id="Group" transform="translate(161.000000, 60.000000)" fill-rule="nonzero">
            <path d="M45.5590551,108.638614 L66.8976867,84.4084262 C67.598505,83.6126413 68.8117417,83.5356558 69.6075266,84.2364741 C69.6684198,84.2901005 69.7258523,84.347533 69.7794787,84.4084262 L91.1181102,108.638614 L91.1181102,209 L45.5590551,209 L45.5590551,108.638614 Z M58.8688189,122.089109 C57.8084322,122.089109 56.9488189,122.948722 56.9488189,124.009109 L56.9488189,151.208713 C56.9488189,152.2691 57.8084322,153.128713 58.8688189,153.128713 L64.3477165,153.128713 C65.4081033,153.128713 66.2677165,152.2691 66.2677165,151.208713 L66.2677165,124.009109 C66.2677165,122.948722 65.4081033,122.089109 64.3477165,122.089109 L58.8688189,122.089109 Z M58.8688189,156.232673 C57.8084322,156.232673 56.9488189,157.092287 56.9488189,158.152673 L56.9488189,185.352277 C56.9488189,186.412664 57.8084322,187.272277 58.8688189,187.272277 L64.3477165,187.272277 C65.4081033,187.272277 66.2677165,186.412664 66.2677165,185.352277 L66.2677165,158.152673 C66.2677165,157.092287 65.4081033,156.232673 64.3477165,156.232673 L58.8688189,156.232673 Z M71.2940157,100.361386 C70.233629,100.361386 69.3740157,101.220999 69.3740157,102.281386 L69.3740157,113.961188 C69.3740157,115.021575 70.233629,115.881188 71.2940157,115.881188 L74.7020472,115.881188 C75.762434,115.881188 76.6220472,115.021575 76.6220472,113.961188 L76.6220472,102.281386 C76.6220472,101.220999 75.762434,100.361386 74.7020472,100.361386 L71.2940157,100.361386 Z M72.3294488,122.089109 C71.2690621,122.089109 70.4094488,122.948722 70.4094488,124.009109 L70.4094488,151.208713 C70.4094488,152.2691 71.2690621,153.128713 72.3294488,153.128713 L77.8083465,153.128713 C78.8687332,153.128713 79.7283465,152.2691 79.7283465,151.208713 L79.7283465,124.009109 C79.7283465,122.948722 78.8687332,122.089109 77.8083465,122.089109 L72.3294488,122.089109 Z M72.3294488,156.232673 C71.2690621,156.232673 70.4094488,157.092287 70.4094488,158.152673 L70.4094488,185.352277 C70.4094488,186.412664 71.2690621,187.272277 72.3294488,187.272277 L77.8083465,187.272277 C78.8687332,187.272277 79.7283465,186.412664 79.7283465,185.352277 L79.7283465,158.152673 C79.7283465,157.092287 78.8687332,156.232673 77.8083465,156.232673 L72.3294488,156.232673 Z M60.939685,100.361386 C59.8792983,100.361386 59.019685,101.220999 59.019685,102.281386 L59.019685,113.961188 C59.019685,115.021575 59.8792983,115.881188 60.939685,115.881188 L64.3477165,115.881188 C65.4081033,115.881188 66.2677165,115.021575 66.2677165,113.961188 L66.2677165,102.281386 C66.2677165,101.220999 65.4081033,100.361386 64.3477165,100.361386 L60.939685,100.361386 Z" id="Combined-Shape" fill="#E0E6ED"></path>
            <path d="M174.988189,108.638614 L196.326821,84.4084262 C197.027639,83.6126413 198.240876,83.5356558 199.03666,84.2364741 C199.097554,84.2901005 199.154986,84.347533 199.208613,84.4084262 L220.547244,108.638614 L220.547244,209 L174.988189,209 L174.988189,108.638614 Z M188.297953,122.089109 C187.237566,122.089109 186.377953,122.948722 186.377953,124.009109 L186.377953,151.208713 C186.377953,152.2691 187.237566,153.128713 188.297953,153.128713 L193.77685,153.128713 C194.837237,153.128713 195.69685,152.2691 195.69685,151.208713 L195.69685,124.009109 C195.69685,122.948722 194.837237,122.089109 193.77685,122.089109 L188.297953,122.089109 Z M201.758583,100.361386 C200.698196,100.361386 199.838583,101.220999 199.838583,102.281386 L199.838583,113.961188 C199.838583,115.021575 200.698196,115.881188 201.758583,115.881188 L205.166614,115.881188 C206.227001,115.881188 207.086614,115.021575 207.086614,113.961188 L207.086614,102.281386 C207.086614,101.220999 206.227001,100.361386 205.166614,100.361386 L201.758583,100.361386 Z M188.297953,156.232673 C187.237566,156.232673 186.377953,157.092287 186.377953,158.152673 L186.377953,185.352277 C186.377953,186.412664 187.237566,187.272277 188.297953,187.272277 L193.77685,187.272277 C194.837237,187.272277 195.69685,186.412664 195.69685,185.352277 L195.69685,158.152673 C195.69685,157.092287 194.837237,156.232673 193.77685,156.232673 L188.297953,156.232673 Z M201.758583,122.089109 C200.698196,122.089109 199.838583,122.948722 199.838583,124.009109 L199.838583,151.208713 C199.838583,152.2691 200.698196,153.128713 201.758583,153.128713 L207.23748,153.128713 C208.297867,153.128713 209.15748,152.2691 209.15748,151.208713 L209.15748,124.009109 C209.15748,122.948722 208.297867,122.089109 207.23748,122.089109 L201.758583,122.089109 Z M191.404252,100.361386 C190.343865,100.361386 189.484252,101.220999 189.484252,102.281386 L189.484252,113.961188 C189.484252,115.021575 190.343865,115.881188 191.404252,115.881188 L194.812283,115.881188 C195.87267,115.881188 196.732283,115.021575 196.732283,113.961188 L196.732283,102.281386 C196.732283,101.220999 195.87267,100.361386 194.812283,100.361386 L191.404252,100.361386 Z M201.758583,156.232673 C200.698196,156.232673 199.838583,157.092287 199.838583,158.152673 L199.838583,185.352277 C199.838583,186.412664 200.698196,187.272277 201.758583,187.272277 L207.23748,187.272277 C208.297867,187.272277 209.15748,186.412664 209.15748,185.352277 L209.15748,158.152673 C209.15748,157.092287 208.297867,156.232673 207.23748,156.232673 L201.758583,156.232673 Z" id="Combined-Shape" fill="#E0E6ED"></path>
            <path d="M217.920049,108.094587 L238.779576,84.4084262 C239.480395,83.6126413 240.693631,83.5356558 241.489416,84.2364741 C241.55031,84.2901005 241.607742,84.347533 241.661368,84.4084262 L263,108.638614 L263,207.08 C263,208.140387 262.140387,209 261.08,209 L217.440945,209 L217.440945,109.363531 C217.440945,108.896348 217.611284,108.445193 217.920049,108.094587 Z M230.750709,121.054455 C229.690322,121.054455 228.830709,121.914069 228.830709,122.974455 L228.830709,150.174059 C228.830709,151.234446 229.690322,152.094059 230.750709,152.094059 L236.229606,152.094059 C237.289993,152.094059 238.149606,151.234446 238.149606,150.174059 L238.149606,122.974455 C238.149606,121.914069 237.289993,121.054455 236.229606,121.054455 L230.750709,121.054455 Z M243.175906,100.361386 C242.115519,100.361386 241.255906,101.220999 241.255906,102.281386 L241.255906,113.961188 C241.255906,115.021575 242.115519,115.881188 243.175906,115.881188 L246.583937,115.881188 C247.644324,115.881188 248.503937,115.021575 248.503937,113.961188 L248.503937,102.281386 C248.503937,101.220999 247.644324,100.361386 246.583937,100.361386 L243.175906,100.361386 Z M230.750709,155.19802 C229.690322,155.19802 228.830709,156.057633 228.830709,157.11802 L228.830709,184.317624 C228.830709,185.37801 229.690322,186.237624 230.750709,186.237624 L236.229606,186.237624 C237.289993,186.237624 238.149606,185.37801 238.149606,184.317624 L238.149606,157.11802 C238.149606,156.057633 237.289993,155.19802 236.229606,155.19802 L230.750709,155.19802 Z M244.211339,121.054455 C243.150952,121.054455 242.291339,121.914069 242.291339,122.974455 L242.291339,150.174059 C242.291339,151.234446 243.150952,152.094059 244.211339,152.094059 L249.690236,152.094059 C250.750623,152.094059 251.610236,151.234446 251.610236,150.174059 L251.610236,122.974455 C251.610236,121.914069 250.750623,121.054455 249.690236,121.054455 L244.211339,121.054455 Z M232.821575,100.361386 C231.761188,100.361386 230.901575,101.220999 230.901575,102.281386 L230.901575,113.961188 C230.901575,115.021575 231.761188,115.881188 232.821575,115.881188 L236.229606,115.881188 C237.289993,115.881188 238.149606,115.021575 238.149606,113.961188 L238.149606,102.281386 C238.149606,101.220999 237.289993,100.361386 236.229606,100.361386 L232.821575,100.361386 Z M244.211339,155.19802 C243.150952,155.19802 242.291339,156.057633 242.291339,157.11802 L242.291339,184.317624 C242.291339,185.37801 243.150952,186.237624 244.211339,186.237624 L249.690236,186.237624 C250.750623,186.237624 251.610236,185.37801 251.610236,184.317624 L251.610236,157.11802 C251.610236,156.057633 250.750623,155.19802 249.690236,155.19802 L244.211339,155.19802 Z" id="Combined-Shape" fill="#E0E6ED"></path>
            <path d="M92.811811,26.9009901 L173.294488,26.9009901 C175.945455,26.9009901 178.094488,29.0500233 178.094488,31.7009901 L178.094488,209 L88.011811,209 L88.011811,31.7009901 C88.011811,29.0500233 90.1608442,26.9009901 92.811811,26.9009901 Z M111.675906,45.5247525 C110.615519,45.5247525 109.755906,46.3843658 109.755906,47.4447525 L109.755906,74.6443564 C109.755906,75.7047432 110.615519,76.5643564 111.675906,76.5643564 L117.154803,76.5643564 C118.21519,76.5643564 119.074803,75.7047432 119.074803,74.6443564 L119.074803,47.4447525 C119.074803,46.3843658 118.21519,45.5247525 117.154803,45.5247525 L111.675906,45.5247525 Z M138.597165,45.5247525 C137.536779,45.5247525 136.677165,46.3843658 136.677165,47.4447525 L136.677165,74.6443564 C136.677165,75.7047432 137.536779,76.5643564 138.597165,76.5643564 L144.076063,76.5643564 C145.13645,76.5643564 145.996063,75.7047432 145.996063,74.6443564 L145.996063,47.4447525 C145.996063,46.3843658 145.13645,45.5247525 144.076063,45.5247525 L138.597165,45.5247525 Z M111.675906,79.6683168 C110.615519,79.6683168 109.755906,80.5279301 109.755906,81.5883168 L109.755906,108.787921 C109.755906,109.848308 110.615519,110.707921 111.675906,110.707921 L117.154803,110.707921 C118.21519,110.707921 119.074803,109.848308 119.074803,108.787921 L119.074803,81.5883168 C119.074803,80.5279301 118.21519,79.6683168 117.154803,79.6683168 L111.675906,79.6683168 Z M138.597165,79.6683168 C137.536779,79.6683168 136.677165,80.5279301 136.677165,81.5883168 L136.677165,108.787921 C136.677165,109.848308 137.536779,110.707921 138.597165,110.707921 L144.076063,110.707921 C145.13645,110.707921 145.996063,109.848308 145.996063,108.787921 L145.996063,81.5883168 C145.996063,80.5279301 145.13645,79.6683168 144.076063,79.6683168 L138.597165,79.6683168 Z M138.597165,113.811881 C137.536779,113.811881 136.677165,114.671494 136.677165,115.731881 L136.677165,132.58495 C136.677165,133.645337 137.536779,134.50495 138.597165,134.50495 L144.076063,134.50495 C145.13645,134.50495 145.996063,133.645337 145.996063,132.58495 L145.996063,115.731881 C145.996063,114.671494 145.13645,113.811881 144.076063,113.811881 L138.597165,113.811881 Z M111.675906,113.811881 C110.615519,113.811881 109.755906,114.671494 109.755906,115.731881 L109.755906,132.58495 C109.755906,133.645337 110.615519,134.50495 111.675906,134.50495 L117.154803,134.50495 C118.21519,134.50495 119.074803,133.645337 119.074803,132.58495 L119.074803,115.731881 C119.074803,114.671494 118.21519,113.811881 117.154803,113.811881 L111.675906,113.811881 Z M125.136535,45.5247525 C124.076149,45.5247525 123.216535,46.3843658 123.216535,47.4447525 L123.216535,74.6443564 C123.216535,75.7047432 124.076149,76.5643564 125.136535,76.5643564 L130.615433,76.5643564 C131.67582,76.5643564 132.535433,75.7047432 132.535433,74.6443564 L132.535433,47.4447525 C132.535433,46.3843658 131.67582,45.5247525 130.615433,45.5247525 L125.136535,45.5247525 Z M152.057795,45.5247525 C150.997409,45.5247525 150.137795,46.3843658 150.137795,47.4447525 L150.137795,74.6443564 C150.137795,75.7047432 150.997409,76.5643564 152.057795,76.5643564 L157.536693,76.5643564 C158.59708,76.5643564 159.456693,75.7047432 159.456693,74.6443564 L159.456693,47.4447525 C159.456693,46.3843658 158.59708,45.5247525 157.536693,45.5247525 L152.057795,45.5247525 Z M125.136535,79.6683168 C124.076149,79.6683168 123.216535,80.5279301 123.216535,81.5883168 L123.216535,108.787921 C123.216535,109.848308 124.076149,110.707921 125.136535,110.707921 L130.615433,110.707921 C131.67582,110.707921 132.535433,109.848308 132.535433,108.787921 L132.535433,81.5883168 C132.535433,80.5279301 131.67582,79.6683168 130.615433,79.6683168 L125.136535,79.6683168 Z M125.136535,113.811881 C124.076149,113.811881 123.216535,114.671494 123.216535,115.731881 L123.216535,132.58495 C123.216535,133.645337 124.076149,134.50495 125.136535,134.50495 L130.615433,134.50495 C131.67582,134.50495 132.535433,133.645337 132.535433,132.58495 L132.535433,115.731881 C132.535433,114.671494 131.67582,113.811881 130.615433,113.811881 L125.136535,113.811881 Z M152.057795,113.811881 C150.997409,113.811881 150.137795,114.671494 150.137795,115.731881 L150.137795,132.58495 C150.137795,133.645337 150.997409,134.50495 152.057795,134.50495 L157.536693,134.50495 C158.59708,134.50495 159.456693,133.645337 159.456693,132.58495 L159.456693,115.731881 C159.456693,114.671494 158.59708,113.811881 157.536693,113.811881 L152.057795,113.811881 Z M164.057795,113.811881 C162.997409,113.811881 162.137795,114.671494 162.137795,115.731881 L162.137795,132.58495 C162.137795,133.645337 162.997409,134.50495 164.057795,134.50495 L169.536693,134.50495 C170.59708,134.50495 171.456693,133.645337 171.456693,132.58495 L171.456693,115.731881 C171.456693,114.671494 170.59708,113.811881 169.536693,113.811881 L164.057795,113.811881 Z M152.057795,79.6683168 C150.997409,79.6683168 150.137795,80.5279301 150.137795,81.5883168 L150.137795,108.787921 C150.137795,109.848308 150.997409,110.707921 152.057795,110.707921 L157.536693,110.707921 C158.59708,110.707921 159.456693,109.848308 159.456693,108.787921 L159.456693,81.5883168 C159.456693,80.5279301 158.59708,79.6683168 157.536693,79.6683168 L152.057795,79.6683168 Z M133.05315,138.643564 C117.899036,138.643564 105.614199,150.928401 105.614199,166.082514 L105.614173,208.900517 L160.492126,208.900517 L160.4921,166.082514 C160.4921,150.928401 148.207263,138.643564 133.05315,138.643564 Z M98.2152756,113.811881 L103.694173,113.811881 C104.75456,113.811881 105.614173,114.671494 105.614173,115.731881 L105.614173,132.58495 C105.614173,133.645337 104.75456,134.50495 103.694173,134.50495 L98.2152756,134.50495 C97.1548889,134.50495 96.2952756,133.645337 96.2952756,132.58495 L96.2952756,115.731881 C96.2952756,114.671494 97.1548889,113.811881 98.2152756,113.811881 Z M98.2152756,113.811881 L103.694173,113.811881 C104.75456,113.811881 105.614173,114.671494 105.614173,115.731881 L105.614173,132.58495 C105.614173,133.645337 104.75456,134.50495 103.694173,134.50495 L98.2152756,134.50495 C97.1548889,134.50495 96.2952756,133.645337 96.2952756,132.58495 L96.2952756,115.731881 C96.2952756,114.671494 97.1548889,113.811881 98.2152756,113.811881 Z" id="Combined-Shape" fill="#E0E6ED"></path>
            <path d="M1.92,108.638614 L48.6653543,108.638614 L48.6653543,209 L1.92,209 C0.85961328,209 1.90621676e-15,208.140387 1.77635684e-15,207.08 L-2.22044605e-16,110.558614 C-8.22810826e-16,109.498227 0.85961328,108.638614 1.92,108.638614 Z M14.3451969,122.089109 C13.2848101,122.089109 12.4251969,122.948722 12.4251969,124.009109 L12.4251969,151.208713 C12.4251969,152.2691 13.2848101,153.128713 14.3451969,153.128713 L19.8240945,153.128713 C20.8844812,153.128713 21.7440945,152.2691 21.7440945,151.208713 L21.7440945,124.009109 C21.7440945,122.948722 20.8844812,122.089109 19.8240945,122.089109 L14.3451969,122.089109 Z M14.3451969,156.232673 C13.2848101,156.232673 12.4251969,157.092287 12.4251969,158.152673 L12.4251969,185.352277 C12.4251969,186.412664 13.2848101,187.272277 14.3451969,187.272277 L19.8240945,187.272277 C20.8844812,187.272277 21.7440945,186.412664 21.7440945,185.352277 L21.7440945,158.152673 C21.7440945,157.092287 20.8844812,156.232673 19.8240945,156.232673 L14.3451969,156.232673 Z M27.8058268,122.089109 C26.7454401,122.089109 25.8858268,122.948722 25.8858268,124.009109 L25.8858268,151.208713 C25.8858268,152.2691 26.7454401,153.128713 27.8058268,153.128713 L33.2847244,153.128713 C34.3451111,153.128713 35.2047244,152.2691 35.2047244,151.208713 L35.2047244,124.009109 C35.2047244,122.948722 34.3451111,122.089109 33.2847244,122.089109 L27.8058268,122.089109 Z M27.8058268,156.232673 C26.7454401,156.232673 25.8858268,157.092287 25.8858268,158.152673 L25.8858268,185.352277 C25.8858268,186.412664 26.7454401,187.272277 27.8058268,187.272277 L33.2847244,187.272277 C34.3451111,187.272277 35.2047244,186.412664 35.2047244,185.352277 L35.2047244,158.152673 C35.2047244,157.092287 34.3451111,156.232673 33.2847244,156.232673 L27.8058268,156.232673 Z" id="Combined-Shape" fill="#E0E6ED"></path>
            <rect id="Rectangle-Copy-28" fill="#F0F4F8" x="96.2952756" y="113.811881" width="9.31889764" height="20.6930693" rx="1.92"></rect>
            <path d="M127.875984,1.5519802 L127.875984,26.9009901" id="Line" stroke="#E0E6ED" stroke-width="2.88" stroke-linecap="square"></path>
            <rect id="Rectangle" fill="#E0E6ED" x="126.322835" y="0" width="30.0275591" height="17.5891089"></rect>
            <path d="M133.05315,141.230198 L133.05315,206.413366" id="Line-9" stroke="#E0E6ED" stroke-width="2.88" stroke-linecap="square"></path>
            <ellipse id="Oval" stroke="#E0E6ED" stroke-width="1.92" cx="141.854331" cy="176.925743" rx="2.07086614" ry="2.06930693"></ellipse>
            <ellipse id="Oval-Copy" stroke="#E0E6ED" stroke-width="1.92" cx="124.251969" cy="176.925743" rx="2.07086614" ry="2.06930693"></ellipse>
        </g>
        <g id="Group-Copy" transform="translate(586.000000, 67.000000)">
            <path d="M11,41 L254,41 L254,199.37856 C254,200.826341 252.826341,202 251.37856,202 L13.62144,202 C12.1736587,202 11,200.826341 11,199.37856 L11,41 Z M40.0344835,51.5921053 C38.5867021,51.5921053 37.4130435,52.7657639 37.4130435,54.2135453 L37.4130435,101.931192 C37.4130435,103.378973 38.5867021,104.552632 40.0344835,104.552632 L50.6394296,104.552632 C52.0872109,104.552632 53.2608696,103.378973 53.2608696,101.931192 L53.2608696,54.2135453 C53.2608696,52.7657639 52.0872109,51.5921053 50.6394296,51.5921053 L40.0344835,51.5921053 Z M69.0888313,51.5921053 C67.64105,51.5921053 66.4673913,52.7657639 66.4673913,54.2135453 L66.4673913,101.931192 C66.4673913,103.378973 67.64105,104.552632 69.0888313,104.552632 L79.6937774,104.552632 C81.1415587,104.552632 82.3152174,103.378973 82.3152174,101.931192 L82.3152174,54.2135453 C82.3152174,52.7657639 81.1415587,51.5921053 79.6937774,51.5921053 L69.0888313,51.5921053 Z M98.1431791,51.5921053 C96.6953978,51.5921053 95.5217391,52.7657639 95.5217391,54.2135453 L95.5217391,101.931192 C95.5217391,103.378973 96.6953978,104.552632 98.1431791,104.552632 L108.748125,104.552632 C110.195907,104.552632 111.369565,103.378973 111.369565,101.931192 L111.369565,54.2135453 C111.369565,52.7657639 110.195907,51.5921053 108.748125,51.5921053 L98.1431791,51.5921053 Z M127.197527,51.5921053 C125.749746,51.5921053 124.576087,52.7657639 124.576087,54.2135453 L124.576087,101.931192 C124.576087,103.378973 125.749746,104.552632 127.197527,104.552632 L137.802473,104.552632 C139.250254,104.552632 140.423913,103.378973 140.423913,101.931192 L140.423913,54.2135453 C140.423913,52.7657639 139.250254,51.5921053 137.802473,51.5921053 L127.197527,51.5921053 Z M156.251875,51.5921053 C154.804093,51.5921053 153.630435,52.7657639 153.630435,54.2135453 L153.630435,101.931192 C153.630435,103.378973 154.804093,104.552632 156.251875,104.552632 L166.856821,104.552632 C168.304602,104.552632 169.478261,103.378973 169.478261,101.931192 L169.478261,54.2135453 C169.478261,52.7657639 168.304602,51.5921053 166.856821,51.5921053 L156.251875,51.5921053 Z M185.306223,51.5921053 C183.858441,51.5921053 182.684783,52.7657639 182.684783,54.2135453 L182.684783,101.931192 C182.684783,103.378973 183.858441,104.552632 185.306223,104.552632 L195.911169,104.552632 C197.35895,104.552632 198.532609,103.378973 198.532609,101.931192 L198.532609,54.2135453 C198.532609,52.7657639 197.35895,51.5921053 195.911169,51.5921053 L185.306223,51.5921053 Z M214.36057,51.5921053 C212.912789,51.5921053 211.73913,52.7657639 211.73913,54.2135453 L211.73913,101.931192 C211.73913,103.378973 212.912789,104.552632 214.36057,104.552632 L224.965517,104.552632 C226.413298,104.552632 227.586957,103.378973 227.586957,101.931192 L227.586957,54.2135453 C227.586957,52.7657639 226.413298,51.5921053 224.965517,51.5921053 L214.36057,51.5921053 Z M40.0344835,110.907895 C38.5867021,110.907895 37.4130435,112.081553 37.4130435,113.529335 L37.4130435,161.246981 C37.4130435,162.694762 38.5867021,163.868421 40.0344835,163.868421 L50.6394296,163.868421 C52.0872109,163.868421 53.2608696,162.694762 53.2608696,161.246981 L53.2608696,113.529335 C53.2608696,112.081553 52.0872109,110.907895 50.6394296,110.907895 L40.0344835,110.907895 Z M69.0888313,110.907895 C67.64105,110.907895 66.4673913,112.081553 66.4673913,113.529335 L66.4673913,161.246981 C66.4673913,162.694762 67.64105,163.868421 69.0888313,163.868421 L79.6937774,163.868421 C81.1415587,163.868421 82.3152174,162.694762 82.3152174,161.246981 L82.3152174,113.529335 C82.3152174,112.081553 81.1415587,110.907895 79.6937774,110.907895 L69.0888313,110.907895 Z M98.1431791,110.907895 C96.6953978,110.907895 95.5217391,112.081553 95.5217391,113.529335 L95.5217391,161.246981 C95.5217391,162.694762 96.6953978,163.868421 98.1431791,163.868421 L108.748125,163.868421 C110.195907,163.868421 111.369565,162.694762 111.369565,161.246981 L111.369565,113.529335 C111.369565,112.081553 110.195907,110.907895 108.748125,110.907895 L98.1431791,110.907895 Z M127.197527,110.907895 C125.749746,110.907895 124.576087,112.081553 124.576087,113.529335 L124.576087,161.246981 C124.576087,162.694762 125.749746,163.868421 127.197527,163.868421 L137.802473,163.868421 C139.250254,163.868421 140.423913,162.694762 140.423913,161.246981 L140.423913,113.529335 C140.423913,112.081553 139.250254,110.907895 137.802473,110.907895 L127.197527,110.907895 Z M156.251875,110.907895 C154.804093,110.907895 153.630435,112.081553 153.630435,113.529335 L153.630435,161.246981 C153.630435,162.694762 154.804093,163.868421 156.251875,163.868421 L166.856821,163.868421 C168.304602,163.868421 169.478261,162.694762 169.478261,161.246981 L169.478261,113.529335 C169.478261,112.081553 168.304602,110.907895 166.856821,110.907895 L156.251875,110.907895 Z M185.306223,110.907895 C183.858441,110.907895 182.684783,112.081553 182.684783,113.529335 L182.684783,161.246981 C182.684783,162.694762 183.858441,163.868421 185.306223,163.868421 L195.911169,163.868421 C197.35895,163.868421 198.532609,162.694762 198.532609,161.246981 L198.532609,113.529335 C198.532609,112.081553 197.35895,110.907895 195.911169,110.907895 L185.306223,110.907895 Z M214.36057,110.907895 C212.912789,110.907895 211.73913,112.081553 211.73913,113.529335 L211.73913,161.246981 C211.73913,162.694762 212.912789,163.868421 214.36057,163.868421 L224.965517,163.868421 C226.413298,163.868421 227.586957,162.694762 227.586957,161.246981 L227.586957,113.529335 C227.586957,112.081553 226.413298,110.907895 224.965517,110.907895 L214.36057,110.907895 Z" id="Combined-Shape" fill="#E0E6ED" fill-rule="nonzero"></path>
            <g id="Group-9" transform="translate(38.000000, 52.000000)"></g>
            <path d="M258.243296,31.8724199 L264.897479,44.1277012 C265.588309,45.4000315 265.11691,46.9914875 263.84458,47.6823178 C263.460616,47.8907967 263.030633,48 262.593721,48 L2.70253595,48 C1.25475462,48 0.0810959506,46.8263413 0.0810959506,45.37856 C0.0810959506,44.891613 0.216726424,44.4142903 0.472782771,44.0001013 L7.970253,31.8724199 L258.243296,31.8724199 Z" id="Rectangle" fill="#E0E6ED" fill-rule="nonzero"></path>
            <g id="Group-9-Copy" transform="translate(10.000000, 0.000000)"></g>
            <path d="M10.9959922,27.8563045 L25.6922896,2.88566202 C26.4110826,1.66435276 27.7224319,0.914530579 29.1395627,0.914530579 L238.622483,0.914530579 C240.091628,0.914530579 241.44254,1.71989944 242.14121,3.0122795 L255.572082,27.8563045 L10.9959922,27.8563045 Z" id="Path-2" fill="#E0E6ED" fill-rule="nonzero"></path>
        </g>
        <g id="League" transform="translate(368.000000, 114.000000)" fill-rule="nonzero">
            <rect id="Rectangle" stroke="#AFBDCC" stroke-width="1.2" fill="#FBFBFB" x="11.0478852" y="126.178704" width="295.543958" height="28.1016975"></rect>
            <path d="M202.352266,37.316821 L202.352266,55.3719936 L306.351662,55.3323771 L306.351662,37.316821 L202.352266,37.316821 Z" id="Combined-Shape" stroke="#8396A9" stroke-width="1.2" fill="#E0E6ED"></path>
            <g id="Group-4" transform="translate(212.920695, 44.610340)" fill="#CBD5E1">
                <rect id="Rectangle-26-Copy" x="10.5679758" y="0" width="8.40634441" height="12.7512891" rx="0.36"></rect>
                <rect id="Rectangle-26-Copy-2" x="0" y="0" width="8.40634441" height="12.7512891" rx="0.36"></rect>
            </g>
            <g id="Group-4" transform="translate(245.345166, 44.610340)" fill="#CBD5E1">
                <rect id="Rectangle-26-Copy" x="10.5679758" y="0" width="8.40634441" height="12.7512891" rx="0.36"></rect>
                <rect id="Rectangle-26-Copy-2" x="0" y="0" width="8.40634441" height="12.7512891" rx="0.36"></rect>
            </g>
            <g id="Group-4" transform="translate(276.568731, 44.610340)" fill="#CBD5E1">
                <rect id="Rectangle-26-Copy" x="10.5679758" y="0" width="8.40634441" height="12.7512891" rx="0.36"></rect>
                <rect id="Rectangle-26-Copy-2" x="0" y="0" width="8.40634441" height="12.7512891" rx="0.36"></rect>
            </g>
            <path d="M10.9277946,54.658642 L10.9277946,145.190509 L306.351662,145.000371 L306.351662,54.658642 L10.9277946,54.658642 Z" id="Combined-Shape" stroke="#8396A9" stroke-width="1.2" fill="#E0E6ED"></path>
            <path d="M202.352266,31.4564815 L202.352266,37.4980487 L306.916895,37.4980487 L293.569629,31.4564815 L202.352266,31.4564815 Z" id="Combined-Shape" stroke="#8396A9" stroke-width="1.2" fill="#BDC7D1"></path>
            <path d="M29.0037752,31.4564815 L11.4158915,54.654193 L150.113746,54.6040698 L150.113746,31.4564815 L29.0037752,31.4564815 Z" id="Combined-Shape" stroke="#8396A9" stroke-width="1.2" fill="#BDC7D1"></path>
            <g id="Group-4" transform="translate(149.272659, 34.922840)" fill="#CBD5E1">
                <rect id="Rectangle-26-Copy" x="10.5679758" y="0" width="8.40634441" height="12.7512891" rx="0.36"></rect>
                <rect id="Rectangle-26-Copy-2" x="0" y="0" width="8.40634441" height="12.7512891" rx="0.36"></rect>
            </g>
            <rect id="Rectangle" stroke="#AFBDCC" stroke-width="1.2" fill="#FBFBFB" x="11.0478852" y="117.089198" width="295.543958" height="28.1016975"></rect>
            <polyline id="Path-22" stroke="#B6C2D0" stroke-width="1.2" points="12.1291541 116.300708 12.1291541 55.8526235 114.630002 55.8526235"></polyline>
            <path d="M8.40634441,117.087593 L309.473565,117.087593" id="Line-27" stroke="#8396A9" stroke-width="1.2" stroke-linecap="round"></path>
            <path d="M8.40634441,54.5374383 L309.473565,54.5374383" id="Line-27" stroke="#8396A9" stroke-width="1.2" stroke-linecap="round"></path>
            <path d="M197.429003,37.5546296 L309.473565,37.5546296" id="Line-27" stroke="#8396A9" stroke-width="1.2" stroke-linecap="round"></path>
            <path d="M8.40634441,139.811358 L309.473565,139.811358" id="Line-27" stroke="#8396A9" stroke-width="1.2" stroke-linecap="round"></path>
            <path d="M197.309366,0.6 L176.172508,0.6 L176.172508,6.8191358 L141.34713,6.8191358 L141.34713,0.6 L120.210272,0.6 L120.210272,6.8191358 L117.808459,6.8191358 L117.808459,25.5392903 L115.406647,25.5392903 L115.406647,145.188915 L202.353172,144.902397 L202.353172,25.5137946 L199.95136,25.5137946 L199.95136,6.8191358 L197.309366,6.8191358 L197.309366,0.6 Z" id="Combined-Shape" stroke="#8396A9" stroke-width="1.2" fill="#E0E6ED"></path>
            <g id="Group" transform="translate(21.135952, 61.234568)" stroke="#76899F" stroke-width="1.2">
                <g id="league-window">
                    <path d="M0.6,7.28284729 L0.6,50.88 L19.2,50.88 L19.2,7.28284729 C17.9237996,2.79996815 14.8702304,0.6 9.9,0.6 C4.92976959,0.6 1.87620039,2.79996815 0.6,7.28284729 Z" id="Rectangle-26" fill="#CBD5E1"></path>
                    <path d="M0.66,13.62 C4.80036808,13.62 7.88036808,12.9047921 9.9,11.4743762 C11.8602335,12.9047921 14.9402335,13.62 19.14,13.62" id="Line-2" stroke-linecap="square"></path>
                    <path d="M0.66,25.62 L19.14,25.62" id="Line-2" stroke-linecap="square"></path>
                    <path d="M0.66,38.82 L19.14,38.82" id="Line-2" stroke-linecap="square"></path>
                    <path d="M9.96,0.72 L9.96,50.4" id="Line" stroke-linecap="square"></path>
                </g>
                <g id="league-window" transform="translate(31.824018, 0.000000)">
                    <path d="M0.6,7.28284729 L0.6,50.88 L19.2,50.88 L19.2,7.28284729 C17.9237996,2.79996815 14.8702304,0.6 9.9,0.6 C4.92976959,0.6 1.87620039,2.79996815 0.6,7.28284729 Z" id="Rectangle-26" fill="#CBD5E1"></path>
                    <path d="M0.66,13.62 C4.80036808,13.62 7.88036808,12.9047921 9.9,11.4743762 C11.8602335,12.9047921 14.9402335,13.62 19.14,13.62" id="Line-2" stroke-linecap="square"></path>
                    <path d="M0.66,25.62 L19.14,25.62" id="Line-2" stroke-linecap="square"></path>
                    <path d="M0.66,38.82 L19.14,38.82" id="Line-2" stroke-linecap="square"></path>
                    <path d="M9.96,0.72 L9.96,50.4" id="Line" stroke-linecap="square"></path>
                </g>
                <g id="league-window" transform="translate(63.648036, 0.000000)">
                    <path d="M0.6,7.28284729 L0.6,50.88 L19.2,50.88 L19.2,7.28284729 C17.9237996,2.79996815 14.8702304,0.6 9.9,0.6 C4.92976959,0.6 1.87620039,2.79996815 0.6,7.28284729 Z" id="Rectangle-26" fill="#CBD5E1"></path>
                    <path d="M0.66,13.62 C4.80036808,13.62 7.88036808,12.9047921 9.9,11.4743762 C11.8602335,12.9047921 14.9402335,13.62 19.14,13.62" id="Line-2" stroke-linecap="square"></path>
                    <path d="M0.66,25.62 L19.14,25.62" id="Line-2" stroke-linecap="square"></path>
                    <path d="M0.66,38.82 L19.14,38.82" id="Line-2" stroke-linecap="square"></path>
                    <path d="M9.96,0.72 L9.96,50.4" id="Line" stroke-linecap="square"></path>
                </g>
            </g>
            <g id="Group-Copy" transform="translate(212.920695, 61.653164)" stroke="#76899F" stroke-width="1.2">
                <g id="league-window">
                    <path d="M0.6,7.28284729 L0.6,50.88 L19.2,50.88 L19.2,7.28284729 C17.9237996,2.79996815 14.8702304,0.6 9.9,0.6 C4.92976959,0.6 1.87620039,2.79996815 0.6,7.28284729 Z" id="Rectangle-26" fill="#CBD5E1"></path>
                    <path d="M0.66,13.62 C4.80036808,13.62 7.88036808,12.9047921 9.9,11.4743762 C11.8602335,12.9047921 14.9402335,13.62 19.14,13.62" id="Line-2" stroke-linecap="square"></path>
                    <path d="M0.66,25.62 L19.14,25.62" id="Line-2" stroke-linecap="square"></path>
                    <path d="M0.66,38.82 L19.14,38.82" id="Line-2" stroke-linecap="square"></path>
                    <path d="M9.96,0.72 L9.96,50.4" id="Line" stroke-linecap="square"></path>
                </g>
                <g id="league-window" transform="translate(31.824018, 0.000000)">
                    <path d="M0.6,7.28284729 L0.6,50.88 L19.2,50.88 L19.2,7.28284729 C17.9237996,2.79996815 14.8702304,0.6 9.9,0.6 C4.92976959,0.6 1.87620039,2.79996815 0.6,7.28284729 Z" id="Rectangle-26" fill="#CBD5E1"></path>
                    <path d="M0.66,13.62 C4.80036808,13.62 7.88036808,12.9047921 9.9,11.4743762 C11.8602335,12.9047921 14.9402335,13.62 19.14,13.62" id="Line-2" stroke-linecap="square"></path>
                    <path d="M0.66,25.62 L19.14,25.62" id="Line-2" stroke-linecap="square"></path>
                    <path d="M0.66,38.82 L19.14,38.82" id="Line-2" stroke-linecap="square"></path>
                    <path d="M9.96,0.72 L9.96,50.4" id="Line" stroke-linecap="square"></path>
                </g>
                <g id="league-window" transform="translate(63.648036, 0.000000)">
                    <path d="M0.6,7.28284729 L0.6,50.88 L19.2,50.88 L19.2,7.28284729 C17.9237996,2.79996815 14.8702304,0.6 9.9,0.6 C4.92976959,0.6 1.87620039,2.79996815 0.6,7.28284729 Z" id="Rectangle-26" fill="#CBD5E1"></path>
                    <path d="M0.66,13.62 C4.80036808,13.62 7.88036808,12.9047921 9.9,11.4743762 C11.8602335,12.9047921 14.9402335,13.62 19.14,13.62" id="Line-2" stroke-linecap="square"></path>
                    <path d="M0.66,25.62 L19.14,25.62" id="Line-2" stroke-linecap="square"></path>
                    <path d="M0.66,38.82 L19.14,38.82" id="Line-2" stroke-linecap="square"></path>
                    <path d="M9.96,0.72 L9.96,50.4" id="Line" stroke-linecap="square"></path>
                </g>
            </g>
            <g id="Group-3" transform="translate(21.135952, 121.871142)" fill="#CBD5E1">
                <rect id="Rectangle-26" x="0" y="0" width="8.40634441" height="12.7512891" rx="0.36"></rect>
                <rect id="Rectangle-26" x="10.9282477" y="0" width="8.40634441" height="12.7512891" rx="0.36"></rect>
            </g>
            <g id="Group-3-Copy" transform="translate(212.920695, 122.289738)" fill="#CBD5E1">
                <rect id="Rectangle-26" x="0" y="0" width="8.40634441" height="12.7512891" rx="0.36"></rect>
                <rect id="Rectangle-26" x="10.9282477" y="0" width="8.40634441" height="12.7512891" rx="0.36"></rect>
            </g>
            <g id="Group-2" transform="translate(52.359517, 121.871142)" fill="#CBD5E1">
                <rect id="Rectangle-26" x="0" y="0" width="8.40634441" height="12.7512891" rx="0.36"></rect>
                <rect id="Rectangle-26" x="10.9282477" y="0" width="8.40634441" height="12.7512891" rx="0.36"></rect>
            </g>
            <g id="Group-2-Copy" transform="translate(244.144260, 122.289738)" fill="#CBD5E1">
                <rect id="Rectangle-26" x="0" y="0" width="8.40634441" height="12.7512891" rx="0.36"></rect>
                <rect id="Rectangle-26" x="10.9282477" y="0" width="8.40634441" height="12.7512891" rx="0.36"></rect>
            </g>
            <g id="Group-2" transform="translate(84.783988, 121.871142)" fill="#CBD5E1">
                <rect id="Rectangle-26" x="0" y="0" width="8.40634441" height="12.7512891" rx="0.36"></rect>
                <rect id="Rectangle-26" x="10.9282477" y="0" width="8.40634441" height="12.7512891" rx="0.36"></rect>
            </g>
            <g id="Group-2-Copy-2" transform="translate(276.568731, 122.289738)" fill="#CBD5E1">
                <rect id="Rectangle-26" x="0" y="0" width="8.40634441" height="12.7512891" rx="0.36"></rect>
                <rect id="Rectangle-26" x="10.9282477" y="0" width="8.40634441" height="12.7512891" rx="0.36"></rect>
            </g>
            <rect id="Rectangle-27" stroke="#AFBDCC" stroke-width="1.2" fill="#FBFBFB" x="115.526737" y="107.880093" width="86.7063444" height="37.3108025"></rect>
            <path d="M113.305514,25.5347994 L204.994713,25.5347994" id="Line-28" stroke="#8396A9" stroke-width="1.2" stroke-linecap="round"></path>
            <path d="M115.166918,6.87739198 L202.112538,6.87739198" id="Line-28" stroke="#8396A9" stroke-width="1.2" stroke-linecap="round"></path>
            <path d="M141.106042,6.87696306 L141.106042,44.1877655 L176.293505,44.1877655 L176.293505,6.87696306 L163.526625,6.87696306 L158.702116,4.27115389 L153.955756,6.87696306 L141.106042,6.87696306 Z" id="Rectangle-3" stroke="#AFBDCC" stroke-width="1.2" fill="#FBFBFB"></path>
            <rect id="Rectangle-26" fill="#CBD5E1" x="154.556647" y="11.3618827" width="8.40634441" height="12.7512891" rx="0.36"></rect>
            <rect id="Rectangle-2" stroke="#AFBDCC" stroke-width="1.2" fill="#FBFBFB" x="129.697432" y="43.6555556" width="59.2055891" height="101.53534"></rect>
            <rect id="Rectangle-2" stroke="#AFBDCC" stroke-width="1.2" fill="#FBFBFB" x="129.697432" y="38.6324074" width="14.2916918" height="106.678086" rx="0.36"></rect>
            <path d="M142.238074,38.8105678 L142.238074,7.86493099 L154.463612,7.86493099 C157.381164,6.41889826 158.934845,5.53448098 159.124653,5.21167915" id="Path-24" stroke="#DDE3EA" stroke-width="1.2"></path>
            <rect id="Rectangle-2" stroke="#AFBDCC" stroke-width="1.2" fill="#FBFBFB" x="174.611329" y="38.6324074" width="14.2916918" height="106.678086" rx="0.36"></rect>
            <path d="M127.656344,38.5710031 L146.630665,38.5710031" id="Line-28" stroke="#AFBDCC" stroke-width="1.2" stroke-linecap="round"></path>
            <path d="M172.20997,38.5710031 L191.18429,38.5710031" id="Line-28" stroke="#AFBDCC" stroke-width="1.2" stroke-linecap="round"></path>
            <g id="Group-4" transform="translate(144.589124, 55.254630)" fill="#CBD5E1">
                <rect id="Rectangle-26-Copy" x="21.1359517" y="0" width="8.40634441" height="12.7512891" rx="0.36"></rect>
                <rect id="Rectangle-26-Copy-2" x="10.5679758" y="0" width="8.40634441" height="12.7512891" rx="0.36"></rect>
                <rect id="Rectangle-26-Copy-3" x="0" y="0" width="8.40634441" height="12.7512891" rx="0.36"></rect>
            </g>
            <g id="Group-4" transform="translate(144.589124, 79.413580)" fill="#CBD5E1">
                <rect id="Rectangle-26-Copy" x="21.1359517" y="0" width="8.40634441" height="12.7512891" rx="0.36"></rect>
                <rect id="Rectangle-26-Copy-2" x="10.5679758" y="0" width="8.40634441" height="12.7512891" rx="0.36"></rect>
                <rect id="Rectangle-26-Copy-3" x="0" y="0" width="8.40634441" height="12.7512891" rx="0.36"></rect>
            </g>
            <rect id="Rectangle-4" stroke="#AFBDCC" stroke-width="1.2" fill="#FBFBFB" x="135.101511" y="103.096142" width="48.5175227" height="42.0947531" rx="0.36"></rect>
            <path d="M140.025227,119.682948 L140.025227,144.832099 L178.575227,144.832099 L178.575227,119.682948 C172.121692,114.117527 165.699697,111.348457 159.300227,111.348457 C152.900756,111.348457 146.478762,114.117527 140.025227,119.682948 Z" id="Rectangle-4" stroke="#AFBDCC" stroke-width="1.2" fill="#AFBDCC"></path>
            <rect id="Rectangle-29" stroke="#AFBDCC" stroke-width="1.2" fill="#FBFBFB" x="132.459517" y="145.434105" width="53.6814199" height="2.98595679"></rect>
            <rect id="Rectangle-29" stroke="#AFBDCC" stroke-width="1.2" fill="#FBFBFB" x="130.538066" y="148.424074" width="57.5243202" height="2.98595679"></rect>
            <rect id="Rectangle-29" stroke="#AFBDCC" stroke-width="1.2" fill="#FBFBFB" x="128.616616" y="151.414043" width="61.4873112" height="2.98595679"></rect>
            <path d="M0,154.163117 L318,154.163117" id="Line-27" stroke="#8396A9" stroke-width="1.2" stroke-linecap="round"></path>
            <polyline id="Path-22-Copy" stroke="#B6C2D0" stroke-width="1.2" points="116.608006 107.290231 116.608006 26.5509259 140.480735 26.5509259"></polyline>
            <path d="M202.938091,38.5112037 L305.635845,38.5112037" id="Path-22-Copy-4" stroke="#B6C2D0" stroke-width="1.2"></path>
            <path d="M203.015948,55.8530247 L305.635845,55.8530247" id="Path-22-Copy-4" stroke="#B6C2D0" stroke-width="1.2"></path>
            <polyline id="Path-22-Copy-2" stroke="#B6C2D0" stroke-width="1.2" points="119.009819 25.0159524 119.009819 8.01311728 140.591416 8.01311728"></polyline>
            <path d="M176.893505,8.01351852 L199.202792,8.01351852" id="Path-22-Copy-2" stroke="#B6C2D0" stroke-width="1.2"></path>
            <path d="M176.893505,26.5812114 L201.752266,26.5812114" id="Path-22-Copy-3" stroke="#B6C2D0" stroke-width="1.2"></path>
            <polyline id="Path-22-Copy-2" stroke="#B6C2D0" stroke-width="1.2" points="121.411631 6.31909504 121.411631 1.79398148 140.835841 1.79398148"></polyline>
            <path d="M176.890174,1.79438272 L196.798077,1.79438272" id="Path-22-Copy-2" stroke="#B6C2D0" stroke-width="1.2"></path>
            <path d="M12.1891994,141.067207 L114.326284,141.067207" id="Line-29" stroke="#DDE3EA" stroke-width="1.2" stroke-linecap="square"></path>
            <path d="M12.1891994,118.343441 L114.326284,118.343441" id="Line-29" stroke="#DDE3EA" stroke-width="1.2" stroke-linecap="square"></path>
            <path d="M203.373489,141.067207 L305.510574,141.067207" id="Line-29" stroke="#DDE3EA" stroke-width="1.2" stroke-linecap="square"></path>
            <path d="M203.373489,118.343441 L305.510574,118.343441" id="Line-29" stroke="#DDE3EA" stroke-width="1.2" stroke-linecap="square"></path>
            <polyline id="Path-23" stroke="#DDE3EA" stroke-width="1.2" points="116.608006 144.604573 116.608006 109.074074 129.019911 109.074074"></polyline>
            <polyline id="Path-23-Copy" stroke="#DDE3EA" stroke-width="1.2" points="136.30287 144.512684 136.30287 104.290123 183.097994 104.290123"></polyline>
            <polyline id="Path-23" stroke="#DDE3EA" stroke-width="1.2" points="130.898792 144.7035 130.898792 39.8263889 143.310696 39.8263889"></polyline>
            <path d="M175.872734,39.8866512 L187.701662,39.8866512" id="Line-30" stroke="#DDE3EA" stroke-width="1.2" stroke-linecap="square"></path>
            <path d="M190.043429,109.014676 L201.031722,109.014676" id="Line-30" stroke="#DDE3EA" stroke-width="1.2" stroke-linecap="square"></path>
        </g>
        <g id="Group" transform="translate(56.000000, 2.000000)" fill-rule="nonzero">
            <path d="M91.63125,66.3583333 L10.36875,66.3583333 L10.36875,93.540625 L2.4,93.540625 L2.4,304.6 L99.6,304.6 L99.6,93.540625 L91.63125,93.540625 L91.63125,66.3583333 Z M15.6,91.4 L15.6,75.6 L25.4,75.6 L25.4,91.4 L15.6,91.4 Z M29.6,91.4 L29.6,75.6 L39.4,75.6 L39.4,91.4 L29.6,91.4 Z M45.6,91.4 L45.6,75.6 L55.4,75.6 L55.4,91.4 L45.6,91.4 Z M60.6,91.4 L60.6,75.6 L70.4,75.6 L70.4,91.4 L60.6,91.4 Z M77.6,91.4 L77.6,75.6 L87.4,75.6 L87.4,91.4 L77.6,91.4 Z M15.6,120.4 L15.6,91.6 L25.4,91.6 L25.4,120.4 L15.6,120.4 Z M29.6,113.4 L29.6,91.6 L39.4,91.6 L39.4,113.4 L29.6,113.4 Z M45.6,107.4 L45.6,91.6 L55.4,91.6 L55.4,107.4 L45.6,107.4 Z M60.6,113.4 L60.6,91.6 L70.4,91.6 L70.4,113.4 L60.6,113.4 Z M77.6,120.4 L77.6,91.6 L87.4,91.6 L87.4,120.4 L77.6,120.4 Z M15.6,194.9 L15.6,167.6 L25.4,167.6 L25.4,194.9 L15.6,194.9 Z M29.6,194.9 L29.6,167.6 L39.4,167.6 L39.4,194.9 L29.6,194.9 Z M45.6,194.9 L45.6,167.6 L55.4,167.6 L55.4,194.9 L45.6,194.9 Z M60.6,194.9 L60.6,167.6 L70.4,167.6 L70.4,194.9 L60.6,194.9 Z M77.6,194.9 L77.6,167.6 L87.4,167.6 L87.4,194.9 L77.6,194.9 Z M15.6,304.798342 L15.6,194.6 L25.4,194.6 L25.4,304.798342 L15.6,304.798342 Z M29.6,304.798342 L29.6,194.6 L39.4,194.6 L39.4,304.798342 L29.6,304.798342 Z M45.6,304.798342 L45.6,194.6 L55.4,194.6 L55.4,304.798342 L45.6,304.798342 Z M60.6,304.798342 L60.6,194.6 L70.4,194.6 L70.4,304.798342 L60.6,304.798342 Z M77.6,304.798342 L77.6,194.6 L87.4,194.6 L87.4,304.798342 L77.6,304.798342 Z M51,159.301042 C39.1103147,159.301042 29.475,149.634239 29.475,137.713542 C29.475,125.792844 39.1103147,116.126042 51,116.126042 C62.8896853,116.126042 72.525,125.792844 72.525,137.713542 C72.525,149.634239 62.8896853,159.301042 51,159.301042 Z" id="Combined-Shape" stroke="#E0E6ED" stroke-width="4.8" fill="#E0E6ED"></path>
            <path d="M29.484375,40.7734375 L29.484375,63.9583333" id="Line" stroke="#E0E6ED" stroke-width="4.8" stroke-linecap="square"></path>
            <path d="M43.03125,40.7734375 L43.03125,63.9583333" id="Line-Copy" stroke="#E0E6ED" stroke-width="4.8" stroke-linecap="square"></path>
            <path d="M57.375,40.7734375 L57.375,63.9583333" id="Line-Copy-2" stroke="#E0E6ED" stroke-width="4.8" stroke-linecap="square"></path>
            <path d="M72.515625,40.7734375 L72.515625,63.9583333" id="Line-Copy-3" stroke="#E0E6ED" stroke-width="4.8" stroke-linecap="square"></path>
            <rect id="Rectangle" stroke="#E0E6ED" stroke-width="4.8" x="16.74375" y="39.1760417" width="68.5125" height="27.1791667" rx="1.6"></rect>
            <path d="M51.6708143,14.0033813 L91.591996,35.3642576 C92.3711275,35.7811523 92.6647784,36.7507232 92.2478837,37.5298548 C91.9694741,38.0501723 91.4272617,38.375 90.8371412,38.375 L7.97535879,38.375 C7.09170319,38.375 6.37535879,37.6586556 6.37535879,36.775 C6.37535879,36.1848795 6.70018645,35.6426671 7.22050401,35.3642576 L47.1416857,14.0033813 C48.5564937,13.2463511 50.2560063,13.2463511 51.6708143,14.0033813 Z" id="Triangle" fill="#E0E6ED"></path>
            <path d="M49.4064073,10.3932292 L49.4064073,0" id="Line-6" stroke="#E0E6ED" stroke-width="3.2" stroke-linecap="square"></path>
            <path d="M65.8802203,135.024616 C64.9021362,128.720529 60.1216141,123.674072 53.9573035,122.304532 C53.9573035,122.304532 53.9573035,135.024616 53.9573035,135.024616 C53.9573035,135.024616 65.8802203,135.024616 65.8802203,135.024616 Z" id="Oval-2" fill="#E0E6ED"></path>
            <path d="M51.5353168,153 C59.6122631,153 66.2495718,146.836361 67,138.956195 C67,138.956195 50.0539271,138.956195 50.0539271,138.956195 C50.0539271,138.956195 50.0539271,122 50.0539271,122 C42.1688828,122.745879 36,129.385123 36,137.465145 C36,146.044808 42.9553983,153 51.5353168,153 Z" id="Oval-2" fill="#E0E6ED"></path>
        </g>
        <g id="Hatcher" transform="translate(109.000000, 135.000000)" fill-rule="nonzero">
            <rect id="Rectangle-19" stroke="#AFBDCC" stroke-width="1.176" fill="#FBFBFB" x="2.70564706" y="124.216848" width="206.000471" height="9.19515215"></rect>
            <rect id="Rectangle-2" stroke="#979797" stroke-width="0.5" fill="#8396A9" x="66.0147059" y="88.1690853" width="81.5" height="36.1525945"></rect>
            <path d="M143.510622,123.586726 L207.294353,123.512944 L207.294353,11.6662762 L4.70564706,11.6662762 L4.70564706,123.747291 L69.3937047,123.672462 L69.3937047,90.5131434 L89.4468468,90.5131434 L89.4468468,123.649266 L96.5081839,123.641097 L96.5081839,90.5131434 L116.573828,90.5131434 L116.573828,123.617886 L123.577178,123.609785 L123.577178,90.5131434 L143.510622,90.5131434 L143.510622,123.586726 Z" id="Combined-Shape" stroke="#8396A9" stroke-width="1.176" fill="#E0E6ED"></path>
            <path d="M69.470788,89.3333333 L69.470788,74.8962181" id="Line-22" stroke="#A2AFBE" stroke-width="1.176" stroke-linecap="square"></path>
            <path d="M96.5294517,89.3922603 L96.5294517,74.9551451" id="Line-22" stroke="#A2AFBE" stroke-width="1.176" stroke-linecap="square"></path>
            <path d="M116.529452,89.3922603 L116.529452,74.9551451" id="Line-22" stroke="#A2AFBE" stroke-width="1.176" stroke-linecap="square"></path>
            <path d="M123.588275,89.3922603 L123.588275,74.9551451" id="Line-22" stroke="#A2AFBE" stroke-width="1.176" stroke-linecap="square"></path>
            <path d="M143.470628,89.3922603 L143.470628,74.9551451" id="Line-22" stroke="#A2AFBE" stroke-width="1.176" stroke-linecap="square"></path>
            <path d="M89.4706282,89.3922603 L89.4706282,74.9551451" id="Line-22" stroke="#A2AFBE" stroke-width="1.176" stroke-linecap="square"></path>
            <path d="M42.4119645,118.148637 L42.4119645,74.8962181" id="Line-22" stroke="#A2AFBE" stroke-width="1.176" stroke-linecap="square"></path>
            <path d="M62.4119645,118.148637 L62.4119645,74.8962181" id="Line-22" stroke="#A2AFBE" stroke-width="1.176" stroke-linecap="square"></path>
            <path d="M15.353141,118.148637 L15.353141,74.8962181" id="Line-22" stroke="#A2AFBE" stroke-width="1.176" stroke-linecap="square"></path>
            <path d="M35.353141,118.148637 L35.353141,74.8962181" id="Line-22" stroke="#A2AFBE" stroke-width="1.176" stroke-linecap="square"></path>
            <path d="M177.706082,118.148637 L177.706082,74.8962181" id="Line-22" stroke="#A2AFBE" stroke-width="1.176" stroke-linecap="square"></path>
            <path d="M197.706082,118.148637 L197.706082,74.8962181" id="Line-22" stroke="#A2AFBE" stroke-width="1.176" stroke-linecap="square"></path>
            <path d="M150.647259,118.148637 L150.647259,74.8962181" id="Line-22" stroke="#A2AFBE" stroke-width="1.176" stroke-linecap="square"></path>
            <path d="M170.647259,118.148637 L170.647259,74.8962181" id="Line-22" stroke="#A2AFBE" stroke-width="1.176" stroke-linecap="square"></path>
            <rect id="Rectangle" stroke="#FBFBFB" stroke-width="1.176" fill="#FBFBFB" x="101.764471" y="82.4965312" width="9.41223529" height="4.24528408" rx="0.3528"></rect>
            <ellipse id="Oval" stroke="#FBFBFB" stroke-width="1.176" fill="#FBFBFB" cx="133.411765" cy="84.6191733" rx="2.11788235" ry="2.12264204"></ellipse>
            <ellipse id="Oval-Copy-3" stroke="#FBFBFB" stroke-width="1.176" fill="#FBFBFB" cx="25.2941176" cy="84.6191733" rx="2.11788235" ry="2.12264204"></ellipse>
            <ellipse id="Oval-Copy" stroke="#FBFBFB" stroke-width="1.176" fill="#FBFBFB" cx="160.588235" cy="84.6191733" rx="2.11788235" ry="2.12264204"></ellipse>
            <ellipse id="Oval-Copy-4" stroke="#FBFBFB" stroke-width="1.176" fill="#FBFBFB" cx="52.4705882" cy="84.6191733" rx="2.11788235" ry="2.12264204"></ellipse>
            <ellipse id="Oval-Copy-2" stroke="#FBFBFB" stroke-width="1.176" fill="#FBFBFB" cx="187.647059" cy="84.6191733" rx="2.11788235" ry="2.12264204"></ellipse>
            <ellipse id="Oval-Copy-5" stroke="#FBFBFB" stroke-width="1.176" fill="#FBFBFB" cx="79.5294118" cy="84.6191733" rx="2.11788235" ry="2.12264204"></ellipse>
            <g id="blue-window-2" transform="translate(14.705882, 33.706245)" stroke-width="1.176">
                <rect id="Rectangle-18" stroke="#76899F" fill="#CBD5E1" x="0.588" y="0.588" width="19.992" height="44.3352" rx="0.588"></rect>
                <polyline id="Path-22" stroke="#A2AFBE" points="1.657052 44.319052 1.657052 1.75691269 20.014418 1.75691269"></polyline>
                <path d="M0.6468,32.634 L20.5212,32.634" id="Line" stroke="#76899F" stroke-linecap="square"></path>
                <path d="M0.6468,19.698 L20.5212,19.698" id="Line" stroke="#76899F" stroke-linecap="square"></path>
                <path d="M0.6468,7.1148 L20.5212,7.1148" id="Line" stroke="#76899F" stroke-linecap="square"></path>
                <path d="M7.1148,0.588 L7.1148,44.7468" id="Line-22" stroke="#76899F" stroke-linecap="square"></path>
                <path d="M13.818,0.8232 L13.818,44.7468" id="Line-22" stroke="#76899F" stroke-linecap="square"></path>
            </g>
            <g id="blue-window-2" transform="translate(41.764706, 33.706245)" stroke-width="1.176">
                <rect id="Rectangle-18" stroke="#76899F" fill="#CBD5E1" x="0.588" y="0.588" width="19.992" height="44.3352" rx="0.588"></rect>
                <polyline id="Path-22" stroke="#A2AFBE" points="1.657052 44.319052 1.657052 1.75691269 20.014418 1.75691269"></polyline>
                <path d="M0.6468,32.634 L20.5212,32.634" id="Line" stroke="#76899F" stroke-linecap="square"></path>
                <path d="M0.6468,19.698 L20.5212,19.698" id="Line" stroke="#76899F" stroke-linecap="square"></path>
                <path d="M0.6468,7.1148 L20.5212,7.1148" id="Line" stroke="#76899F" stroke-linecap="square"></path>
                <path d="M7.1148,0.588 L7.1148,44.7468" id="Line-22" stroke="#76899F" stroke-linecap="square"></path>
                <path d="M13.818,0.8232 L13.818,44.7468" id="Line-22" stroke="#76899F" stroke-linecap="square"></path>
            </g>
            <g id="blue-window-2" transform="translate(68.823529, 33.706245)" stroke-width="1.176">
                <rect id="Rectangle-18" stroke="#76899F" fill="#CBD5E1" x="0.588" y="0.588" width="19.992" height="44.3352" rx="0.588"></rect>
                <polyline id="Path-22" stroke="#A2AFBE" points="1.657052 44.319052 1.657052 1.75691269 20.014418 1.75691269"></polyline>
                <path d="M0.6468,32.634 L20.5212,32.634" id="Line" stroke="#76899F" stroke-linecap="square"></path>
                <path d="M0.6468,19.698 L20.5212,19.698" id="Line" stroke="#76899F" stroke-linecap="square"></path>
                <path d="M0.6468,7.1148 L20.5212,7.1148" id="Line" stroke="#76899F" stroke-linecap="square"></path>
                <path d="M7.1148,0.588 L7.1148,44.7468" id="Line-22" stroke="#76899F" stroke-linecap="square"></path>
                <path d="M13.818,0.8232 L13.818,44.7468" id="Line-22" stroke="#76899F" stroke-linecap="square"></path>
            </g>
            <g id="blue-window-2" transform="translate(95.882353, 33.706245)" stroke-width="1.176">
                <rect id="Rectangle-18" stroke="#76899F" fill="#CBD5E1" x="0.588" y="0.588" width="19.992" height="44.3352" rx="0.588"></rect>
                <polyline id="Path-22" stroke="#A2AFBE" points="1.657052 44.319052 1.657052 1.75691269 20.014418 1.75691269"></polyline>
                <path d="M0.6468,32.634 L20.5212,32.634" id="Line" stroke="#76899F" stroke-linecap="square"></path>
                <path d="M0.6468,19.698 L20.5212,19.698" id="Line" stroke="#76899F" stroke-linecap="square"></path>
                <path d="M0.6468,7.1148 L20.5212,7.1148" id="Line" stroke="#76899F" stroke-linecap="square"></path>
                <path d="M7.1148,0.588 L7.1148,44.7468" id="Line-22" stroke="#76899F" stroke-linecap="square"></path>
                <path d="M13.818,0.8232 L13.818,44.7468" id="Line-22" stroke="#76899F" stroke-linecap="square"></path>
            </g>
            <g id="blue-window-2" transform="translate(122.941176, 33.706245)" stroke-width="1.176">
                <rect id="Rectangle-18" stroke="#76899F" fill="#CBD5E1" x="0.588" y="0.588" width="19.992" height="44.3352" rx="0.588"></rect>
                <polyline id="Path-22" stroke="#A2AFBE" points="1.657052 44.319052 1.657052 1.75691269 20.014418 1.75691269"></polyline>
                <path d="M0.6468,32.634 L20.5212,32.634" id="Line" stroke="#76899F" stroke-linecap="square"></path>
                <path d="M0.6468,19.698 L20.5212,19.698" id="Line" stroke="#76899F" stroke-linecap="square"></path>
                <path d="M0.6468,7.1148 L20.5212,7.1148" id="Line" stroke="#76899F" stroke-linecap="square"></path>
                <path d="M7.1148,0.588 L7.1148,44.7468" id="Line-22" stroke="#76899F" stroke-linecap="square"></path>
                <path d="M13.818,0.8232 L13.818,44.7468" id="Line-22" stroke="#76899F" stroke-linecap="square"></path>
            </g>
            <g id="blue-window-2" transform="translate(150.000000, 33.706245)" stroke-width="1.176">
                <rect id="Rectangle-18" stroke="#76899F" fill="#CBD5E1" x="0.588" y="0.588" width="19.992" height="44.3352" rx="0.588"></rect>
                <polyline id="Path-22" stroke="#A2AFBE" points="1.657052 44.319052 1.657052 1.75691269 20.014418 1.75691269"></polyline>
                <path d="M0.6468,32.634 L20.5212,32.634" id="Line" stroke="#76899F" stroke-linecap="square"></path>
                <path d="M0.6468,19.698 L20.5212,19.698" id="Line" stroke="#76899F" stroke-linecap="square"></path>
                <path d="M0.6468,7.1148 L20.5212,7.1148" id="Line" stroke="#76899F" stroke-linecap="square"></path>
                <path d="M7.1148,0.588 L7.1148,44.7468" id="Line-22" stroke="#76899F" stroke-linecap="square"></path>
                <path d="M13.818,0.8232 L13.818,44.7468" id="Line-22" stroke="#76899F" stroke-linecap="square"></path>
            </g>
            <g id="blue-window-2" transform="translate(177.058824, 33.706245)" stroke-width="1.176">
                <rect id="Rectangle-18" stroke="#76899F" fill="#CBD5E1" x="0.588" y="0.588" width="19.992" height="44.3352" rx="0.588"></rect>
                <polyline id="Path-22" stroke="#A2AFBE" points="1.657052 44.319052 1.657052 1.75691269 20.014418 1.75691269"></polyline>
                <path d="M0.6468,32.634 L20.5212,32.634" id="Line" stroke="#76899F" stroke-linecap="square"></path>
                <path d="M0.6468,19.698 L20.5212,19.698" id="Line" stroke="#76899F" stroke-linecap="square"></path>
                <path d="M0.6468,7.1148 L20.5212,7.1148" id="Line" stroke="#76899F" stroke-linecap="square"></path>
                <path d="M7.1148,0.588 L7.1148,44.7468" id="Line-22" stroke="#76899F" stroke-linecap="square"></path>
                <path d="M13.818,0.8232 L13.818,44.7468" id="Line-22" stroke="#76899F" stroke-linecap="square"></path>
            </g>
            <g id="blue-window-1" transform="translate(14.705882, 91.101143)" stroke-width="1.176">
                <rect id="Rectangle-18" stroke="#76899F" fill="#CBD5E1" x="0.588" y="0.588" width="19.992" height="21.168" rx="0.588"></rect>
                <polyline id="Path-22" stroke="#A2AFBE" points="1.657052 21.2092168 1.657052 1.764 20.014418 1.764"></polyline>
                <path d="M0.6468,7.4676 L20.5212,7.4676" id="Line" stroke="#76899F" stroke-linecap="square"></path>
                <path d="M7.1148,0.7056 L7.1148,21.5796" id="Line-22" stroke="#76899F" stroke-linecap="square"></path>
                <path d="M13.818,0.588 L13.818,21.5796" id="Line-22" stroke="#76899F" stroke-linecap="square"></path>
            </g>
            <g id="blue-window-1" transform="translate(150.000000, 91.101143)" stroke-width="1.176">
                <rect id="Rectangle-18" stroke="#76899F" fill="#CBD5E1" x="0.588" y="0.588" width="19.992" height="21.168" rx="0.588"></rect>
                <polyline id="Path-22" stroke="#A2AFBE" points="1.657052 21.2092168 1.657052 1.764 20.014418 1.764"></polyline>
                <path d="M0.6468,7.4676 L20.5212,7.4676" id="Line" stroke="#76899F" stroke-linecap="square"></path>
                <path d="M7.1148,0.7056 L7.1148,21.5796" id="Line-22" stroke="#76899F" stroke-linecap="square"></path>
                <path d="M13.818,0.588 L13.818,21.5796" id="Line-22" stroke="#76899F" stroke-linecap="square"></path>
            </g>
            <g id="blue-window-1" transform="translate(41.764706, 91.101143)" stroke-width="1.176">
                <rect id="Rectangle-18" stroke="#76899F" fill="#CBD5E1" x="0.588" y="0.588" width="19.992" height="21.168" rx="0.588"></rect>
                <polyline id="Path-22" stroke="#A2AFBE" points="1.657052 21.2092168 1.657052 1.764 20.014418 1.764"></polyline>
                <path d="M0.6468,7.4676 L20.5212,7.4676" id="Line" stroke="#76899F" stroke-linecap="square"></path>
                <path d="M7.1148,0.7056 L7.1148,21.5796" id="Line-22" stroke="#76899F" stroke-linecap="square"></path>
                <path d="M13.818,0.588 L13.818,21.5796" id="Line-22" stroke="#76899F" stroke-linecap="square"></path>
            </g>
            <g id="blue-window-1" transform="translate(177.058824, 91.101143)" stroke-width="1.176">
                <rect id="Rectangle-18" stroke="#76899F" fill="#CBD5E1" x="0.588" y="0.588" width="19.992" height="21.168" rx="0.588"></rect>
                <polyline id="Path-22" stroke="#A2AFBE" points="1.657052 21.2092168 1.657052 1.764 20.014418 1.764"></polyline>
                <path d="M0.6468,7.4676 L20.5212,7.4676" id="Line" stroke="#76899F" stroke-linecap="square"></path>
                <path d="M7.1148,0.7056 L7.1148,21.5796" id="Line-22" stroke="#76899F" stroke-linecap="square"></path>
                <path d="M13.818,0.588 L13.818,21.5796" id="Line-22" stroke="#76899F" stroke-linecap="square"></path>
            </g>
            <rect id="Rectangle-18" stroke="#AFBDCC" stroke-width="1.176" fill="#FBFBFB" x="88.9409412" y="118.67771" width="8.23576471" height="5.3059701" rx="0.2352"></rect>
            <rect id="Rectangle-18-Copy" stroke="#AFBDCC" stroke-width="1.176" fill="#FBFBFB" x="115.999765" y="118.67771" width="8.23576471" height="5.3059701" rx="0.2352"></rect>
            <rect id="Rectangle-18-Copy-3" stroke="#AFBDCC" stroke-width="1.176" fill="#FBFBFB" x="2.70564706" y="118.67771" width="68.1181176" height="5.3059701" rx="0.2352"></rect>
            <rect id="Rectangle-18-Copy-16" stroke="#AFBDCC" stroke-width="1.176" fill="#FBFBFB" x="59.9997647" y="124.216848" width="94.7063529" height="3.06674406" rx="0.2352"></rect>
            <rect id="Rectangle-18-Copy-17" stroke="#AFBDCC" stroke-width="1.176" fill="#FBFBFB" x="57.8821176" y="127.281052" width="99.4122353" height="3.06674406" rx="0.2352"></rect>
            <rect id="Rectangle-18-Copy-17" stroke="#AFBDCC" stroke-width="1.176" fill="#FBFBFB" x="55.2938824" y="130.345256" width="104.588706" height="3.06674406" rx="0.2352"></rect>
            <rect id="Rectangle-18-Copy-5" stroke="#AFBDCC" stroke-width="1.176" fill="#FBFBFB" x="13.9997647" y="76.6038311" width="22.7063529" height="2.12391205" rx="1.06195602"></rect>
            <rect id="Rectangle-18-Copy-12" stroke="#AFBDCC" stroke-width="1.176" fill="#FBFBFB" x="13.9997647" y="111.252908" width="22.7063529" height="2.12391205" rx="1.06195602"></rect>
            <rect id="Rectangle-18-Copy-6" stroke="#AFBDCC" stroke-width="1.176" fill="#FBFBFB" x="41.1762353" y="76.6038311" width="22.7063529" height="2.12391205" rx="1.06195602"></rect>
            <rect id="Rectangle-18-Copy-13" stroke="#AFBDCC" stroke-width="1.176" fill="#FBFBFB" x="41.1762353" y="111.252908" width="22.7063529" height="2.12391205" rx="1.06195602"></rect>
            <rect id="Rectangle-18-Copy-7" stroke="#AFBDCC" stroke-width="1.176" fill="#FBFBFB" x="68.2350588" y="76.6038311" width="22.7063529" height="2.12391205" rx="1.06195602"></rect>
            <rect id="Rectangle-18-Copy-8" stroke="#AFBDCC" stroke-width="1.176" fill="#FBFBFB" x="95.1762353" y="76.6038311" width="22.7063529" height="2.12391205" rx="1.06195602"></rect>
            <rect id="Rectangle-18-Copy-9" stroke="#AFBDCC" stroke-width="1.176" fill="#FBFBFB" x="122.235059" y="76.6038311" width="22.7063529" height="2.12391205" rx="1.06195602"></rect>
            <rect id="Rectangle-18-Copy-10" stroke="#AFBDCC" stroke-width="1.176" fill="#FBFBFB" x="149.293882" y="76.6038311" width="22.7063529" height="2.12391205" rx="1.06195602"></rect>
            <rect id="Rectangle-18-Copy-14" stroke="#AFBDCC" stroke-width="1.176" fill="#FBFBFB" x="149.293882" y="111.252908" width="22.7063529" height="2.12391205" rx="1.06195602"></rect>
            <rect id="Rectangle-18-Copy-11" stroke="#AFBDCC" stroke-width="1.176" fill="#FBFBFB" x="176.235059" y="76.6038311" width="22.7063529" height="2.12391205" rx="1.06195602"></rect>
            <rect id="Rectangle-18-Copy-15" stroke="#AFBDCC" stroke-width="1.176" fill="#FBFBFB" x="176.235059" y="111.252908" width="22.7063529" height="2.12391205" rx="1.06195602"></rect>
            <rect id="Rectangle-18-Copy-4" stroke="#AFBDCC" stroke-width="1.176" fill="#FBFBFB" x="142.588" y="118.795564" width="66.1181176" height="5.3059701" rx="0.2352"></rect>
            <path d="M37.1807733,0.588 L3.91491281,11.6997015 L208.852067,11.6997015 L177.197127,0.588 L37.1807733,0.588 Z" id="Rectangle-20" stroke="#8396A9" stroke-width="1.176" fill="#BDC7D1"></path>
            <rect id="Rectangle-21" fill="#CBD5E1" x="5.29411765" y="23.2172383" width="201.294118" height="7.18909411"></rect>
            <path d="M2.52941176,11.8440387 L210.117647,11.8440387" id="Line-23" stroke="#8396A9" stroke-width="1.176" stroke-linecap="round"></path>
            <path d="M2.52941176,18.9152788 L210.117647,18.9152788" id="Line-23" stroke="#8396A9" stroke-width="1.176" stroke-linecap="round"></path>
            <path d="M0.0588235294,133.469446 L211.941176,133.469446" id="Line-24" stroke="#8396A9" stroke-width="1.176" stroke-linecap="round"></path>
        </g>
        <g id="Angel-Hall" transform="translate(717.000000, 134.000000)" fill-rule="nonzero">
            <path d="M3.93673696,11.8183764 L213.943396,11.8183764" id="Line-25" stroke="#8396A9" stroke-width="1.2" stroke-linecap="round"></path>
            <path d="M5.79533851,11.880107 L5.79533851,125.553635 L212.204661,125.315945 L212.204661,11.880107 L5.79533851,11.880107 Z" id="Combined-Shape" stroke="#8396A9" stroke-width="1.2" fill="#E0E6ED"></path>
            <path d="M7.05327414,13.1333809 L211.066593,13.1333809" id="Line-25" stroke="#B6C2D0" stroke-width="1.2" stroke-linecap="square"></path>
            <rect id="Rectangle-22" fill="#8396A9" x="22.8157603" y="42.3595004" width="168.652608" height="83.0776093"></rect>
            <g id="Group" transform="translate(29.048835, 42.359500)" stroke="#AFBDCC" stroke-width="1.2">
                <g id="pillar">
                    <path d="M14.76,3.6 L14.76,0.6 L0.6,0.6 L0.6,3.6 L2.28,3.6 L2.28,79.8 L0.6,79.8 L0.6,82.8 L14.76,82.8 L14.76,79.8 L13.08,79.8 L13.08,3.6 L14.76,3.6 Z" id="Combined-Shape" fill="#FBFBFB"></path>
                    <path d="M5.7,3.66 L5.7,79.62" id="Line" stroke-linecap="round"></path>
                    <path d="M9.18,3.66 L9.18,79.62" id="Line" stroke-linecap="round"></path>
                </g>
                <g id="pillar" transform="translate(20.137625, 0.000000)">
                    <path d="M14.76,3.6 L14.76,0.6 L0.6,0.6 L0.6,3.6 L2.28,3.6 L2.28,79.8 L0.6,79.8 L0.6,82.8 L14.76,82.8 L14.76,79.8 L13.08,79.8 L13.08,3.6 L14.76,3.6 Z" id="Combined-Shape" fill="#FBFBFB"></path>
                    <path d="M5.7,3.66 L5.7,79.62" id="Line" stroke-linecap="round"></path>
                    <path d="M9.18,3.66 L9.18,79.62" id="Line" stroke-linecap="round"></path>
                </g>
                <g id="pillar" transform="translate(40.275250, 0.000000)">
                    <path d="M14.76,3.6 L14.76,0.6 L0.6,0.6 L0.6,3.6 L2.28,3.6 L2.28,79.8 L0.6,79.8 L0.6,82.8 L14.76,82.8 L14.76,79.8 L13.08,79.8 L13.08,3.6 L14.76,3.6 Z" id="Combined-Shape" fill="#FBFBFB"></path>
                    <path d="M5.7,3.66 L5.7,79.62" id="Line" stroke-linecap="round"></path>
                    <path d="M9.18,3.66 L9.18,79.62" id="Line" stroke-linecap="round"></path>
                </g>
                <g id="pillar" transform="translate(60.412875, 0.000000)">
                    <path d="M14.76,3.6 L14.76,0.6 L0.6,0.6 L0.6,3.6 L2.28,3.6 L2.28,79.8 L0.6,79.8 L0.6,82.8 L14.76,82.8 L14.76,79.8 L13.08,79.8 L13.08,3.6 L14.76,3.6 Z" id="Combined-Shape" fill="#FBFBFB"></path>
                    <path d="M5.7,3.66 L5.7,79.62" id="Line" stroke-linecap="round"></path>
                    <path d="M9.18,3.66 L9.18,79.62" id="Line" stroke-linecap="round"></path>
                </g>
                <g id="pillar" transform="translate(80.550499, 0.000000)">
                    <path d="M14.76,3.6 L14.76,0.6 L0.6,0.6 L0.6,3.6 L2.28,3.6 L2.28,79.8 L0.6,79.8 L0.6,82.8 L14.76,82.8 L14.76,79.8 L13.08,79.8 L13.08,3.6 L14.76,3.6 Z" id="Combined-Shape" fill="#FBFBFB"></path>
                    <path d="M5.7,3.66 L5.7,79.62" id="Line" stroke-linecap="round"></path>
                    <path d="M9.18,3.66 L9.18,79.62" id="Line" stroke-linecap="round"></path>
                </g>
                <g id="pillar" transform="translate(100.688124, 0.000000)">
                    <path d="M14.76,3.6 L14.76,0.6 L0.6,0.6 L0.6,3.6 L2.28,3.6 L2.28,79.8 L0.6,79.8 L0.6,82.8 L14.76,82.8 L14.76,79.8 L13.08,79.8 L13.08,3.6 L14.76,3.6 Z" id="Combined-Shape" fill="#FBFBFB"></path>
                    <path d="M5.7,3.66 L5.7,79.62" id="Line" stroke-linecap="round"></path>
                    <path d="M9.18,3.66 L9.18,79.62" id="Line" stroke-linecap="round"></path>
                </g>
                <g id="pillar" transform="translate(120.825749, 0.000000)">
                    <path d="M14.76,3.6 L14.76,0.6 L0.6,0.6 L0.6,3.6 L2.28,3.6 L2.28,79.8 L0.6,79.8 L0.6,82.8 L14.76,82.8 L14.76,79.8 L13.08,79.8 L13.08,3.6 L14.76,3.6 Z" id="Combined-Shape" fill="#FBFBFB"></path>
                    <path d="M5.7,3.66 L5.7,79.62" id="Line" stroke-linecap="round"></path>
                    <path d="M9.18,3.66 L9.18,79.62" id="Line" stroke-linecap="round"></path>
                </g>
                <g id="pillar" transform="translate(140.963374, 0.000000)">
                    <path d="M14.76,3.6 L14.76,0.6 L0.6,0.6 L0.6,3.6 L2.28,3.6 L2.28,79.8 L0.6,79.8 L0.6,82.8 L14.76,82.8 L14.76,79.8 L13.08,79.8 L13.08,3.6 L14.76,3.6 Z" id="Combined-Shape" fill="#FBFBFB"></path>
                    <path d="M5.7,3.66 L5.7,79.62" id="Line" stroke-linecap="round"></path>
                    <path d="M9.18,3.66 L9.18,79.62" id="Line" stroke-linecap="round"></path>
                </g>
            </g>
            <rect id="Rectangle-23" fill="#CBD5E1" x="6.39400666" y="31.1231044" width="205.09212" height="7.41123996"></rect>
            <g id="stupid-thing" transform="translate(0.000000, 26.102587)">
                <rect id="hidden-thing-mask" fill="#E0E6ED" x="1" y="0" width="215.520533" height="3.70561998" rx="1.85280999"></rect>
                <polygon id="Path-3" fill="#B6C2D0" points="0.486359419 2.19382158 217.116997 2.19382158 215.212541 4.30813577 2.39129307 4.30813577"></polygon>
                <rect id="hidden-thing-mask" stroke="#8396A9" stroke-width="1.2" x="0.4" y="-0.6" width="216.720533" height="4.90561998" rx="2.45280999"></rect>
            </g>
            <g id="stupid-thing" transform="translate(7.000000, 0.500000)">
                <rect id="hidden-thing-mask" fill="#E0E6ED" x="0.99518692" y="0" width="202.022945" height="4" rx="2"></rect>
                <polygon id="Path-3" fill="#B6C2D0" points="0 2 203.604093 2 202.355129 4 1.78523257 4"></polygon>
                <rect id="hidden-thing-mask" stroke="#8396A9" stroke-width="1.2" x="0.39518692" y="-0.6" width="203.222945" height="5.2" rx="2.6"></rect>
            </g>
            <rect id="Rectangle-24" stroke="#8396A9" stroke-width="1.2" fill="#E0E6ED" x="11.0694784" y="5.30561998" width="195.861043" height="6.45031222"></rect>
            <rect id="Rectangle-19" stroke="#AFBDCC" stroke-width="1.2" fill="#FBFBFB" x="3.75760266" y="125.080821" width="209.885461" height="9.3191793"></rect>
            <rect id="Rectangle-19" stroke="#AFBDCC" stroke-width="1.2" fill="#FBFBFB" x="29.2892342" y="125.080821" width="155.465927" height="3.10330062"></rect>
            <rect id="Rectangle-19" stroke="#AFBDCC" stroke-width="1.2" fill="#FBFBFB" x="27.2514983" y="128.069224" width="159.541398" height="3.10330062"></rect>
            <rect id="Rectangle-19" stroke="#AFBDCC" stroke-width="1.2" fill="#FBFBFB" x="25.5733629" y="131.057627" width="162.897669" height="3.10330062"></rect>
            <path d="M1.05993341,134.462623 L216.940067,134.462623" id="Line-24" stroke="#8396A9" stroke-width="1.2" stroke-linecap="round"></path>
            <path d="M43.357223,47.0865496 L43.357223,120.670907" id="Line-26" stroke="#66798C" stroke-width="1.2" stroke-linecap="square"></path>
            <path d="M44.9311876,43.0169492 L44.9311876,45.9455843" id="Line" stroke="#66798C" stroke-width="1.2" stroke-linecap="square"></path>
            <path d="M63.4948479,47.0865496 L63.4948479,120.670907" id="Line-26" stroke="#66798C" stroke-width="1.2" stroke-linecap="square"></path>
            <path d="M65.0688124,43.0169492 L65.0688124,45.9455843" id="Line" stroke="#66798C" stroke-width="1.2" stroke-linecap="square"></path>
            <path d="M83.7523395,47.0865496 L83.7523395,120.670907" id="Line-26" stroke="#66798C" stroke-width="1.2" stroke-linecap="square"></path>
            <path d="M85.3263041,43.0169492 L85.3263041,45.9455843" id="Line" stroke="#66798C" stroke-width="1.2" stroke-linecap="square"></path>
            <path d="M103.770098,47.0865496 L103.770098,120.670907" id="Line-26" stroke="#66798C" stroke-width="1.2" stroke-linecap="square"></path>
            <path d="M105.344062,43.0169492 L105.344062,45.9455843" id="Line" stroke="#66798C" stroke-width="1.2" stroke-linecap="square"></path>
            <path d="M123.907722,47.0865496 L123.907722,120.670907" id="Line-26" stroke="#66798C" stroke-width="1.2" stroke-linecap="square"></path>
            <path d="M125.481687,43.0169492 L125.481687,45.9455843" id="Line" stroke="#66798C" stroke-width="1.2" stroke-linecap="square"></path>
            <path d="M143.92548,47.0865496 L143.92548,120.670907" id="Line-26" stroke="#66798C" stroke-width="1.2" stroke-linecap="square"></path>
            <path d="M145.499445,43.0169492 L145.499445,45.9455843" id="Line" stroke="#66798C" stroke-width="1.2" stroke-linecap="square"></path>
            <path d="M164.302839,47.0865496 L164.302839,120.670907" id="Line-26" stroke="#66798C" stroke-width="1.2" stroke-linecap="square"></path>
            <path d="M165.876804,43.0169492 L165.876804,45.9455843" id="Line" stroke="#66798C" stroke-width="1.2" stroke-linecap="square"></path>
            <path d="M184.320597,47.0865496 L184.320597,120.670907" id="Line-26" stroke="#66798C" stroke-width="1.2" stroke-linecap="square"></path>
            <path d="M185.894562,43.0169492 L185.894562,45.9455843" id="Line" stroke="#66798C" stroke-width="1.2" stroke-linecap="square"></path>
            <ellipse id="Oval-6" stroke="#FBFBFB" stroke-width="1.2" fill="#FBFBFB" cx="13.8856826" cy="19.1097235" rx="2.81620422" ry="2.80677966"></ellipse>
            <ellipse id="Oval-6-Copy-2" stroke="#FBFBFB" stroke-width="1.2" fill="#FBFBFB" cx="180.140954" cy="19.1097235" rx="2.81620422" ry="2.80677966"></ellipse>
            <ellipse id="Oval-6-Copy" stroke="#FBFBFB" stroke-width="1.2" fill="#FBFBFB" cx="36.6603774" cy="19.1097235" rx="2.81620422" ry="2.80677966"></ellipse>
            <ellipse id="Oval-6-Copy-3" stroke="#FBFBFB" stroke-width="1.2" fill="#FBFBFB" cx="202.915649" cy="19.1097235" rx="2.81620422" ry="2.80677966"></ellipse>
            <g id="Group-3" transform="translate(58.655938, 16.420161)" fill="#FBFBFB" stroke="#FBFBFB" stroke-width="1.2">
                <rect id="Rectangle-25" x="4.79533851" y="0.6" width="91.0974473" height="1"></rect>
                <rect id="Rectangle-25-Copy" x="0.6" y="4.06654773" width="99.4881243" height="1"></rect>
            </g>
        </g>
        <path d="M0,310 L1053,310 C1053,276.09611 1053,259.144165 1053,259.144165 C773.840674,292.197679 584.754167,236 381.675262,236 C256.369777,236 129.144689,243.714722 0,259.144165 L0,310 Z" id="Path-5-Copy" fill="#00274C" fill-rule="nonzero"></path>
    </g>
</svg>
